<svg width="1200" height="400" viewBox="0 0 1200 400" fill="none" xmlns="http://www.w3.org/2000/svg">
  <defs>
    <linearGradient id="accent" x1="0%" y1="0%" x2="100%" y2="0%">
      <stop offset="0%" style="stop-color:#1e3a5f"/>
      <stop offset="100%" style="stop-color:#2563eb"/>
    </linearGradient>
    <filter id="glow" x="-50%" y="-50%" width="200%" height="200%">
      <feGaussianBlur in="SourceGraphic" stdDeviation="25"/>
    </filter>
  </defs>
  
  <!-- Background -->
  <rect width="1200" height="400" fill="#fafafa"/>
  
  <!-- Subtle grid -->
  <g stroke="#1e3a5f" stroke-opacity="0.04" stroke-width="1">
    <line x1="0" y1="100" x2="1200" y2="100"/>
    <line x1="0" y1="200" x2="1200" y2="200"/>
    <line x1="0" y1="300" x2="1200" y2="300"/>
    <line x1="300" y1="0" x2="300" y2="400"/>
    <line x1="600" y1="0" x2="600" y2="400"/>
    <line x1="900" y1="0" x2="900" y2="400"/>
  </g>
  
  <!-- Logo glow -->
  <ellipse cx="120" cy="200" rx="100" ry="100" fill="#1e3a5f" opacity="0.08" filter="url(#glow)"/>
  
  <!-- Genaura Logo - actual brand mark -->
  <g transform="translate(60, 145) scale(1.1)">
    <path opacity="0.7" d="M0.84375 29.5892V75.3785L43.791 45.7896V0L0.84375 29.5892Z" fill="#1e3a5f"/>
    <path opacity="0.9" d="M0.84375 75.3787V29.5891L43.791 59.1783V104.968L0.84375 75.3787Z" fill="#1e3a5f"/>
    <path opacity="0.7" d="M96.8438 29.5891V75.3787L53.8965 45.7895V0L96.8438 29.5891Z" fill="#1e3a5f"/>
    <path opacity="0.9" d="M96.8438 75.3787V29.5891L53.8965 59.1783V104.968L96.8438 75.3787Z" fill="#1e3a5f"/>
  </g>
  
  <!-- Title -->
  <text x="185" y="175" font-family="Manrope, system-ui, -apple-system, sans-serif" font-size="64" font-weight="700" fill="#1e3a5f" letter-spacing="-0.02em">
    Genaura Sync
  </text>
  
  <!-- Underline -->
  <rect x="185" y="195" width="370" height="3" rx="1.5" fill="url(#accent)"/>
  
  <!-- Tagline -->
  <text x="185" y="240" font-family="Manrope, system-ui, sans-serif" font-size="20" fill="#454851">
    Rate and sync AI skills — find the best, skip the garbage
  </text>
  
  <!-- Feature pills -->
  <g transform="translate(185, 270)">
    <g>
      <rect x="0" y="0" width="110" height="36" rx="4" fill="#1e3a5f" fill-opacity="0.08" stroke="#1e3a5f" stroke-opacity="0.15"/>
      <text x="55" y="23" font-family="Manrope, sans-serif" font-size="13" fill="#1e3a5f" text-anchor="middle" font-weight="600">Score 0-100</text>
    </g>
    <g transform="translate(125, 0)">
      <rect x="0" y="0" width="100" height="36" rx="4" fill="#1e3a5f" fill-opacity="0.08" stroke="#1e3a5f" stroke-opacity="0.15"/>
      <text x="50" y="23" font-family="Manrope, sans-serif" font-size="13" fill="#1e3a5f" text-anchor="middle" font-weight="600">8 AI Tools</text>
    </g>
    <g transform="translate(240, 0)">
      <rect x="0" y="0" width="130" height="36" rx="4" fill="#1e3a5f" fill-opacity="0.08" stroke="#1e3a5f" stroke-opacity="0.15"/>
      <text x="65" y="23" font-family="Manrope, sans-serif" font-size="13" fill="#1e3a5f" text-anchor="middle" font-weight="600">Find Overlaps</text>
    </g>
  </g>
  
  <!-- Terminal preview -->
  <g transform="translate(750, 90)">
    <rect x="0" y="0" width="380" height="220" rx="8" fill="white" stroke="#e4e4e7" stroke-width="1"/>
    <rect x="0" y="0" width="380" height="32" rx="8" fill="#fafafa"/>
    <rect x="0" y="24" width="380" height="8" fill="#fafafa"/>
    <circle cx="18" cy="16" r="5" fill="#dc2626" fill-opacity="0.8"/>
    <circle cx="36" cy="16" r="5" fill="#f59e0b" fill-opacity="0.8"/>
    <circle cx="54" cy="16" r="5" fill="#166534" fill-opacity="0.8"/>
    <text x="190" y="20" font-family="Manrope, sans-serif" font-size="11" fill="#454851" text-anchor="middle">gsync</text>
    
    <g transform="translate(16, 48)">
      <text y="0" font-family="JetBrains Mono, monospace" font-size="12" fill="#454851">$ gsync sync --min-score 60</text>
      <text y="24" font-family="JetBrains Mono, monospace" font-size="12" fill="#1e3a5f" font-weight="600">⚡ GENAURA SYNC</text>
      <text y="48" font-family="JetBrains Mono, monospace" font-size="11" fill="#166534">✔ Rated 437 skills</text>
      <text y="72" font-family="JetBrains Mono, monospace" font-size="11" fill="#454851">  ⚡ Excellent: 23   ✓ Good: 161</text>
      <text y="96" font-family="JetBrains Mono, monospace" font-size="11" fill="#454851">  ○ Mediocre: 100</text>
      <text y="120" font-family="JetBrains Mono, monospace" font-size="11" fill="#dc2626">  ✗ Poor: 153 (skipped)</text>
      <text y="148" font-family="JetBrains Mono, monospace" font-size="11" fill="#166534">✔ Synced 284 skills to 8 targets</text>
    </g>
  </g>
  
  <!-- Bottom accent -->
  <rect x="0" y="396" width="1200" height="4" fill="url(#accent)"/>
</svg>